# xmcd
#
# Track frame offsets:
#	150
#	26150
#	42807
#	73441
#	88312
#	118320
#	138676
#	158293
#	180742
#	201181
#	229808
#	243416
#	271707
#	292703
#	309682
#
# Disc length: 4323 seconds
#
# Revision: 1
# Processed by: cddbd v1.5.2PL0 Copyright (c) Steve Scherf et al.
# Submitted via: audiograbber 1.83.01
#
DISCID=db10e10f
DTITLE=Ted Hall and the Pleasure Cats - No Dogs Allowed
DYEAR=1997
DGENRE=Blues
TTITLE0=Where Do You Go?
TTITLE1=Long Grey Mare
TTITLE2=Pleasure Cat Blues
TTITLE3=One Good Reason
TTITLE4=Big Boss Man
TTITLE5=Your Love is Murder
TTITLE6=Cold, Cold Feeling
TTITLE7=Shake Your Money Maker
TTITLE8=You Left Me With Nuthin'
TTITLE9=Serves Me Right to Suffer
TTITLE10=I Love My Baby
TTITLE11=The Blues
TTITLE12=Help Me
TTITLE13=All Alone
TTITLE14=Born With the Blues
EXTD=1997 Party Pet Records
EXTT0=
EXTT1=
EXTT2=
EXTT3=
EXTT4=
EXTT5=
EXTT6=
EXTT7=
EXTT8=
EXTT9=
EXTT10=
EXTT11=
EXTT12=
EXTT13=
EXTT14=
PLAYORDER=
